<svg xmlns="http://www.w3.org/2000/svg" xmlns:xlink="http://www.w3.org/1999/xlink" version="1.1" x="0px" y="0px" viewBox="0 0 100 100" enable-background="new 0 0 100 100" xml:space="preserve"><rect x="32.499" y="14.999" fill="none" stroke="#000000" stroke-linecap="round" stroke-linejoin="round" stroke-miterlimit="10" width="35.001" height="25"></rect><rect x="37.499" y="19.998" fill="none" stroke="#000000" stroke-linecap="round" stroke-linejoin="round" stroke-miterlimit="10" width="25" height="20.001"></rect><rect x="32.499" y="9.998" fill="none" stroke="#000000" stroke-linecap="round" stroke-linejoin="round" stroke-miterlimit="10" width="20" height="5"></rect><rect x="62.499" y="9.998" fill="none" stroke="#000000" stroke-linecap="round" stroke-linejoin="round" stroke-miterlimit="10" width="5.001" height="5"></rect><rect x="57.498" y="9.998" fill="none" stroke="#000000" stroke-linecap="round" stroke-linejoin="round" stroke-miterlimit="10" width="5.001" height="5"></rect><rect x="52.498" y="9.998" fill="none" stroke="#000000" stroke-linecap="round" stroke-linejoin="round" stroke-miterlimit="10" width="5" height="5"></rect><rect x="10" y="64.999" fill="none" stroke="#000000" stroke-linecap="round" stroke-linejoin="round" stroke-miterlimit="10" width="35.001" height="25.001"></rect><rect x="15" y="69.998" fill="none" stroke="#000000" stroke-linecap="round" stroke-linejoin="round" stroke-miterlimit="10" width="25" height="20.002"></rect><rect x="10" y="60" fill="none" stroke="#000000" stroke-linecap="round" stroke-linejoin="round" stroke-miterlimit="10" width="20.001" height="4.999"></rect><rect x="40" y="60" fill="none" stroke="#000000" stroke-linecap="round" stroke-linejoin="round" stroke-miterlimit="10" width="5" height="4.999"></rect><rect x="35" y="60" fill="none" stroke="#000000" stroke-linecap="round" stroke-linejoin="round" stroke-miterlimit="10" width="5.001" height="4.999"></rect><rect x="29.999" y="60" fill="none" stroke="#000000" stroke-linecap="round" stroke-linejoin="round" stroke-miterlimit="10" width="5" height="4.999"></rect><rect x="54.999" y="64.999" fill="none" stroke="#000000" stroke-linecap="round" stroke-linejoin="round" stroke-miterlimit="10" width="35.001" height="25.001"></rect><rect x="60" y="69.998" fill="none" stroke="#000000" stroke-linecap="round" stroke-linejoin="round" stroke-miterlimit="10" width="25" height="20.002"></rect><rect x="54.999" y="60" fill="none" stroke="#000000" stroke-linecap="round" stroke-linejoin="round" stroke-miterlimit="10" width="20.001" height="4.999"></rect><rect x="85" y="60" fill="none" stroke="#000000" stroke-linecap="round" stroke-linejoin="round" stroke-miterlimit="10" width="5" height="4.999"></rect><rect x="79.999" y="60" fill="none" stroke="#000000" stroke-linecap="round" stroke-linejoin="round" stroke-miterlimit="10" width="5.001" height="4.999"></rect><rect x="74.998" y="60" fill="none" stroke="#000000" stroke-linecap="round" stroke-linejoin="round" stroke-miterlimit="10" width="5.001" height="4.999"></rect><polygon fill="none" stroke="#000000" stroke-linecap="round" stroke-linejoin="round" stroke-miterlimit="10" points="72.501,60   72.501,50 27.5,50 27.5,60 27.5,50 72.501,50 "></polygon><path fill="none" stroke="#000000" stroke-linecap="round" stroke-linejoin="round" stroke-miterlimit="10" d="M50,39.999V50V39.999  z"></path></svg>